<svg width="304" height="177" viewBox="0 0 304 177" fill="none" xmlns="http://www.w3.org/2000/svg">
<path d="M107.422 101.109V177H90.1719V125.766L83.2812 177H71.0469L63.7812 126.938V177H46.5312V101.109H72.0781C72.8281 105.672 73.625 111.047 74.4688 117.234L77.1875 136.547L81.6875 101.109H107.422Z" fill="#2B8999"/>
<path d="M131.469 101.109V177H111.734V101.109H131.469ZM179.141 101.109V116.297H167.422V177H147.688V116.297H136.016V101.109H179.141ZM183.641 101.109H197.609C206.922 101.109 213.219 101.469 216.5 102.188C219.812 102.906 222.5 104.75 224.562 107.719C226.656 110.656 227.703 115.359 227.703 121.828C227.703 127.734 226.969 131.703 225.5 133.734C224.031 135.766 221.141 136.984 216.828 137.391C220.734 138.359 223.359 139.656 224.703 141.281C226.047 142.906 226.875 144.406 227.188 145.781C227.531 147.125 227.703 150.859 227.703 156.984V177H209.375V151.781C209.375 147.719 209.047 145.203 208.391 144.234C207.766 143.266 206.094 142.781 203.375 142.781V177H183.641V101.109ZM203.375 114.094V130.969C205.594 130.969 207.141 130.672 208.016 130.078C208.922 129.453 209.375 127.469 209.375 124.125V119.953C209.375 117.547 208.938 115.969 208.062 115.219C207.219 114.469 205.656 114.094 203.375 114.094ZM269.469 101.109L280.766 177H260.562L259.578 163.359H252.5L251.328 177H230.891L240.922 101.109H269.469ZM259.016 149.906C258.016 141.312 257.016 130.703 256.016 118.078C254.016 132.578 252.766 143.188 252.266 149.906H259.016Z" fill="#2B8999"/>
<path d="M73.9844 21.1094L85.2812 97H65.0781L64.0938 83.3594H57.0156L55.8438 97H35.4062L45.4375 21.1094H73.9844ZM63.5312 69.9062C62.5312 61.3125 61.5312 50.7031 60.5312 38.0781C58.5312 52.5781 57.2812 63.1875 56.7812 69.9062H63.5312ZM131.031 34.7969V105.859H112.094V91.9844C110.25 94.6719 108.547 96.3594 106.984 97.0469C105.453 97.7656 103.547 98.125 101.266 98.125C97.9531 98.125 95.2031 97.3438 93.0156 95.7812C90.8594 94.2188 89.4062 92.2031 88.6562 89.7344C87.9062 87.2344 87.5312 83.4219 87.5312 78.2969V50.875C87.5312 46.6562 87.8125 43.5156 88.375 41.4531C88.9375 39.3594 90.2812 37.5469 92.4062 36.0156C94.5625 34.4531 97.1094 33.6719 100.047 33.6719C102.422 33.6719 104.609 34.2031 106.609 35.2656C108.609 36.3281 110.438 37.9375 112.094 40.0938L112.422 34.7969H131.031ZM112.094 51.7188C112.094 48.9688 111.875 47.1094 111.438 46.1406C111.031 45.1719 110.281 44.6875 109.188 44.6875C108.125 44.6875 107.406 45.1094 107.031 45.9531C106.656 46.7969 106.469 48.7188 106.469 51.7188V79.4219C106.469 82.7656 106.656 84.8906 107.031 85.7969C107.406 86.6719 108.172 87.1094 109.328 87.1094C110.422 87.1094 111.156 86.6562 111.531 85.75C111.906 84.8125 112.094 82.7969 112.094 79.7031V51.7188ZM181.234 34.7969V97H161.969L162.297 91.8438C160.984 93.9375 159.359 95.5156 157.422 96.5781C155.516 97.6094 153.312 98.125 150.812 98.125C147.969 98.125 145.609 97.625 143.734 96.625C141.859 95.625 140.469 94.2969 139.562 92.6406C138.688 90.9844 138.141 89.2656 137.922 87.4844C137.703 85.6719 137.594 82.0938 137.594 76.75V34.7969H156.531V77.125C156.531 81.9688 156.672 84.8438 156.953 85.75C157.266 86.6562 158.078 87.1094 159.391 87.1094C160.797 87.1094 161.625 86.6406 161.875 85.7031C162.156 84.7656 162.297 81.75 162.297 76.6562V34.7969H181.234ZM204.953 58.8906H187.188V54.7188C187.188 49.9062 187.734 46.2031 188.828 43.6094C189.953 40.9844 192.188 38.6719 195.531 36.6719C198.875 34.6719 203.219 33.6719 208.562 33.6719C214.969 33.6719 219.797 34.8125 223.047 37.0938C226.297 39.3438 228.25 42.125 228.906 45.4375C229.562 48.7188 229.891 55.5 229.891 65.7812V97H211.469V91.4688C210.312 93.6875 208.812 95.3594 206.969 96.4844C205.156 97.5781 202.984 98.125 200.453 98.125C197.141 98.125 194.094 97.2031 191.312 95.3594C188.562 93.4844 187.188 89.4062 187.188 83.125V78.0156C187.188 73.3594 187.922 70.1875 189.391 68.5C190.859 66.8125 194.5 64.8438 200.312 62.5938C206.531 60.1562 209.859 58.5156 210.297 57.6719C210.734 56.8281 210.953 55.1094 210.953 52.5156C210.953 49.2656 210.703 47.1562 210.203 46.1875C209.734 45.1875 208.938 44.6875 207.812 44.6875C206.531 44.6875 205.734 45.1094 205.422 45.9531C205.109 46.7656 204.953 48.9062 204.953 52.375V58.8906ZM210.953 67.4219C207.922 69.6406 206.156 71.5 205.656 73C205.188 74.5 204.953 76.6562 204.953 79.4688C204.953 82.6875 205.156 84.7656 205.562 85.7031C206 86.6406 206.844 87.1094 208.094 87.1094C209.281 87.1094 210.047 86.75 210.391 86.0312C210.766 85.2812 210.953 83.3438 210.953 80.2188V67.4219Z" fill="#27899C"/>
</svg>
